<svg xmlns="http://www.w3.org/2000/svg" width="240" height="22" viewBox="0 0 240 22"><g transform="translate(-20.539 -21.259)"><path d="M14.487-4.043,17-16.352h2.819L16.048,0H13.331L10.22-11.938,7.042,0H4.313L.539-16.352H3.358L5.9-4.065,9.018-16.352H11.4ZM34.949-7.749a10.032,10.032,0,0,1-.831,4.217A6.284,6.284,0,0,1,31.743-.747a6.533,6.533,0,0,1-3.554.971,6.549,6.549,0,0,1-3.543-.971,6.38,6.38,0,0,1-2.4-2.768,9.718,9.718,0,0,1-.859-4.144V-8.58a9.946,9.946,0,0,1,.848-4.223,6.373,6.373,0,0,1,2.392-2.8,6.513,6.513,0,0,1,3.543-.971,6.57,6.57,0,0,1,3.543.96A6.292,6.292,0,0,1,34.1-12.853a9.925,9.925,0,0,1,.854,4.195ZM32.108-8.6a7.148,7.148,0,0,0-1.028-4.167,3.362,3.362,0,0,0-2.914-1.449,3.352,3.352,0,0,0-2.881,1.443,7.01,7.01,0,0,0-1.061,4.082v.943a7.094,7.094,0,0,0,1.05,4.167,3.381,3.381,0,0,0,2.914,1.471,3.342,3.342,0,0,0,2.9-1.437,7.247,7.247,0,0,0,1.016-4.2ZM49.74-16.352V-5.424A5.31,5.31,0,0,1,48.072-1.3,6.335,6.335,0,0,1,43.63.225a6.38,6.38,0,0,1-4.458-1.5,5.336,5.336,0,0,1-1.651-4.161V-16.352h2.83V-5.413a3.475,3.475,0,0,0,.831,2.5,3.242,3.242,0,0,0,2.448.865q3.279,0,3.279-3.459V-16.352ZM55.613-2.269h7.423V0H52.772V-16.352h2.841ZM65.215,0V-16.352h4.829a7.574,7.574,0,0,1,3.846.966,6.585,6.585,0,0,1,2.6,2.74,8.7,8.7,0,0,1,.921,4.065v.82a8.662,8.662,0,0,1-.927,4.088A6.506,6.506,0,0,1,73.846-.955,7.925,7.925,0,0,1,69.921,0Zm2.841-14.061V-2.269H69.91a4.267,4.267,0,0,0,3.431-1.4,6.09,6.09,0,0,0,1.219-4.015v-.91A6.249,6.249,0,0,0,73.4-12.657a4.1,4.1,0,0,0-3.358-1.4Z" transform="translate(20 42.19)" fill="rgba(80,80,80,0.75)"/><path d="M5.083-6.407a8.954,8.954,0,0,1,.5-3.3A6.759,6.759,0,0,1,7.4-12.122,9.385,9.385,0,0,0,9.17-14.059a3.057,3.057,0,0,0,.439-1.575q0-2.5-2.285-2.5a2.306,2.306,0,0,0-1.736.673A2.654,2.654,0,0,0,4.907-15.6H.659a5.72,5.72,0,0,1,1.809-4.421,7.006,7.006,0,0,1,4.856-1.6,7.035,7.035,0,0,1,4.819,1.515,5.413,5.413,0,0,1,1.714,4.28,5.247,5.247,0,0,1-.557,2.373,9.763,9.763,0,0,1-1.948,2.476L10.166-9.837A4.068,4.068,0,0,0,8.892-7.309l-.059.9ZM4.658-1.868A2.173,2.173,0,0,1,5.325-3.5a2.356,2.356,0,0,1,1.707-.643A2.356,2.356,0,0,1,8.738-3.5,2.173,2.173,0,0,1,9.4-1.868,2.155,2.155,0,0,1,8.752-.257,2.36,2.36,0,0,1,7.031.379,2.36,2.36,0,0,1,5.31-.257,2.155,2.155,0,0,1,4.658-1.868Z" transform="translate(246.682 42.88)" fill="#505050"/><path d="M7.1-8.984l3.4-7.367h3.684L8.816-5.93V0H5.391V-5.93L.022-16.352H3.717ZM28.784-7.805a9.871,9.871,0,0,1-.854,4.234A6.428,6.428,0,0,1,25.488-.764a6.757,6.757,0,0,1-3.644.988,6.8,6.8,0,0,1-3.627-.977,6.491,6.491,0,0,1-2.471-2.791,9.589,9.589,0,0,1-.887-4.172v-.809a9.819,9.819,0,0,1,.87-4.251,6.48,6.48,0,0,1,2.459-2.819,6.765,6.765,0,0,1,3.633-.983,6.765,6.765,0,0,1,3.633.983,6.48,6.48,0,0,1,2.459,2.819,9.791,9.791,0,0,1,.87,4.24ZM25.37-8.546a6.881,6.881,0,0,0-.921-3.908,3,3,0,0,0-2.628-1.336,3,3,0,0,0-2.617,1.32A6.8,6.8,0,0,0,18.272-8.6v.8a6.967,6.967,0,0,0,.921,3.886,2.993,2.993,0,0,0,2.65,1.381,2.966,2.966,0,0,0,2.605-1.331,6.927,6.927,0,0,0,.921-3.88Zm18.238-7.805v10.77a5.514,5.514,0,0,1-1.679,4.245A6.473,6.473,0,0,1,37.341.225a6.546,6.546,0,0,1-4.548-1.516,5.42,5.42,0,0,1-1.718-4.167V-16.352h3.369V-5.559a3.116,3.116,0,0,0,.769,2.342,2.953,2.953,0,0,0,2.128.736q2.841,0,2.886-2.987V-16.352Z" transform="translate(104.331 42.19)" fill="#505050"/><path d="M7.67-6.3H4.5V0H1.662V-16.352h5.75a6.692,6.692,0,0,1,4.369,1.269,4.488,4.488,0,0,1,1.539,3.672,4.6,4.6,0,0,1-.792,2.746,5.037,5.037,0,0,1-2.207,1.7L13.993-.146V0H10.95ZM4.5-8.58h2.92A3.247,3.247,0,0,0,9.669-9.3a2.526,2.526,0,0,0,.809-1.982,2.689,2.689,0,0,0-.747-2.033A3.173,3.173,0,0,0,7.5-14.061h-3ZM25.167-3.807H18.833L17.508,0H14.555l6.177-16.352h2.549L29.469,0H26.5ZM19.631-6.1H24.37L22-12.881Zm22.158-7.962h-5.1V0H33.871V-14.061H28.817v-2.291H41.789ZM56.916,0h-2.83V-7.266H46.775V0H43.934V-16.352h2.841v6.806h7.311v-6.806h2.83ZM69.831-7.3H63.115v5.031h7.85V0H60.274V-16.352H70.887v2.291H63.115v4.515h6.716Zm9.456,1H76.12V0H73.279V-16.352h5.75A6.692,6.692,0,0,1,83.4-15.083a4.488,4.488,0,0,1,1.539,3.672,4.6,4.6,0,0,1-.792,2.746,5.037,5.037,0,0,1-2.207,1.7L85.61-.146V0H82.566ZM76.12-8.58h2.92A3.247,3.247,0,0,0,81.286-9.3a2.526,2.526,0,0,0,.809-1.982,2.689,2.689,0,0,0-.747-2.033,3.173,3.173,0,0,0-2.229-.741h-3Z" transform="translate(155.775 42.19)" fill="rgba(80,80,80,0.75)"/></g></svg>